<?xml version="1.0" encoding="UTF-8" standalone="no"?>
<!DOCTYPE svg PUBLIC "-//W3C//DTD SVG 1.1//EN" "http://www.w3.org/Graphics/SVG/1.1/DTD/svg11.dtd">
<svg width="100%" height="100%" viewBox="0 0 2500 879" version="1.1" xmlns="http://www.w3.org/2000/svg" xmlns:xlink="http://www.w3.org/1999/xlink" xml:space="preserve" xmlns:serif="http://www.serif.com/" style="fill-rule:evenodd;clip-rule:evenodd;stroke-linejoin:round;stroke-miterlimit:2;">
    <path d="M2176.04,764.705L2176.04,879L2382.53,879C2424.84,879 2497.46,848.058 2499.99,761.547L2499.99,717.345C2499.99,643.463 2439.37,599.892 2382.53,599.892L2279.61,599.892L2279.61,546.849L2483.57,546.849L2483.57,431.922L2287.81,431.922C2237.3,431.922 2169.73,473.599 2169.73,551.269L2169.73,591.052C2169.73,668.722 2236.66,708.504 2287.81,708.504C2429.89,709.136 2253.71,708.504 2385.06,708.504L2385.06,764.073M1069.72,736.92C1069.72,736.92 1180.22,727.448 1180.22,584.737C1180.22,442.026 1046.35,428.765 1046.35,428.765L805.133,428.765L805.133,879L926.374,879L926.374,770.388L1031.2,879L1210.53,879L1069.72,736.92ZM1022.99,644.726L926.374,644.726L926.374,541.797L1023.62,541.797C1023.62,541.797 1050.77,551.901 1050.77,592.946C1050.77,633.991 1022.99,644.726 1022.99,644.726ZM1479.54,431.922L1356.4,431.922C1268.63,431.922 1238.95,511.487 1238.95,549.375L1238.95,879L1362.09,879L1362.09,800.067L1477.64,800.067L1477.64,879L1596.99,879L1596.99,549.375C1596.99,453.392 1509.85,431.922 1479.54,431.922ZM1477.64,672.511L1361.45,672.511L1361.45,563.267C1361.45,563.267 1361.45,538.64 1399.97,538.64L1442.28,538.64C1476.38,538.64 1477.01,563.267 1477.01,563.267L1477.01,672.511L1477.64,672.511ZM1653.19,431.922L1781.38,431.922L1781.38,879L1653.19,879L1653.19,431.922ZM1961.35,763.442L1961.35,431.922L1833.79,431.922L1833.79,879L2133.74,879L2133.74,763.442L1961.35,763.442Z" style="fill:white;fill-rule:nonzero;"/>
    <path d="M44.217,879L543.074,879C543.074,879 447.723,443.92 763.456,267.741C832.286,234.274 1051.4,109.244 1410.08,374.459C1421.44,364.987 1432.18,357.409 1432.18,357.409C1432.18,357.409 1103.82,29.679 738.197,66.304C554.441,82.722 328.376,250.06 195.768,471.073C63.161,692.086 44.217,879 44.217,879Z" style="fill:white;fill-rule:nonzero;"/>
    <path d="M44.217,879L543.074,879C543.074,879 447.723,443.92 763.456,267.741C832.286,234.274 1051.4,109.244 1410.08,374.459C1421.44,364.987 1432.18,357.409 1432.18,357.409C1432.18,357.409 1103.82,29.679 738.197,66.304C554.441,82.722 328.376,250.06 195.768,471.073C63.161,692.086 44.217,879 44.217,879Z" style="fill:white;fill-rule:nonzero;"/>
    <path d="M44.217,879L543.074,879C543.074,879 447.723,443.92 763.456,267.741C832.286,234.274 1051.4,109.244 1410.08,374.459C1421.44,364.987 1432.18,357.409 1432.18,357.409C1432.18,357.409 1103.82,29.679 738.197,66.304C553.809,82.722 327.745,250.06 195.137,471.073C62.529,692.086 44.217,879 44.217,879ZM1083.61,101.666L1086.13,59.358C1080.45,56.2 1064.66,48.623 1024.88,37.256L1022.36,78.933C1043.19,85.879 1063.4,93.457 1083.61,101.666Z" style="fill:white;fill-rule:nonzero;"/>
    <path d="M1023.62,235.537L1021.09,275.319C1041.93,275.95 1062.77,278.476 1083.61,282.897L1086.13,243.746C1064.66,239.325 1043.83,236.8 1023.62,235.537ZM789.977,38.519L796.292,38.519L783.663,-0C764.087,-0 743.88,1.263 723.042,3.789L735.04,41.045C753.352,39.151 771.665,38.519 789.977,38.519ZM820.288,270.899L834.811,314.47C853.124,305.629 871.436,298.052 889.749,292.369L875.857,250.692C854.387,257.006 836.074,263.953 820.288,270.899ZM533.602,104.823L505.186,61.252C489.4,69.461 472.982,78.302 455.932,88.405L484.98,132.608C501.398,122.504 517.184,113.032 533.602,104.823ZM663.053,388.983L693.363,434.448C704.098,418.662 716.727,404.138 730.62,389.614L702.204,346.675C687.68,359.935 674.419,374.459 663.053,388.983ZM571.49,592.315L622.639,632.728C625.165,608.101 629.585,583.474 635.9,558.847L590.434,522.853C582.225,546.218 576.542,569.582 571.49,592.315ZM294.908,292.369L250.074,253.218C233.656,269.004 217.87,284.791 203.346,300.578L251.969,342.254C265.23,325.205 279.753,308.155 294.908,292.369ZM104.206,574.634L31.587,548.112C19.589,575.265 6.329,606.838 0.014,623.888L72.633,650.409C80.842,628.94 94.102,597.998 104.206,574.634ZM562.018,752.707C563.281,786.175 566.439,813.328 569.596,832.272L645.372,859.425C639.689,834.797 634.005,807.013 630.217,777.334L562.018,752.707Z" style="fill:white;fill-rule:nonzero;"/>
</svg>
