<?xml version="1.0" encoding="UTF-8" standalone="no"?>
<!DOCTYPE svg PUBLIC "-//W3C//DTD SVG 1.1//EN" "http://www.w3.org/Graphics/SVG/1.1/DTD/svg11.dtd">
<svg width="100%" height="100%" viewBox="0 0 2427 677" version="1.1" xmlns="http://www.w3.org/2000/svg" xmlns:xlink="http://www.w3.org/1999/xlink" xml:space="preserve" xmlns:serif="http://www.serif.com/" style="fill-rule:evenodd;clip-rule:evenodd;stroke-linejoin:round;stroke-miterlimit:2;">
    <g transform="matrix(1,0,0,1,-36.7563,-911.93)">
        <path d="M1327.83,1571.5L1660.79,1571.5C1710.54,1571.5 1751.37,1551.08 1784.54,1510.24C1816.43,1470.69 1833.02,1423.5 1833.02,1369.93C1833.02,1261.49 1693.97,1184.94 1640.36,1184.94L1457.94,1184.94C1443.91,1184.94 1432.41,1178.56 1423.5,1168.37C1414.56,1156.88 1409.46,1144.13 1409.46,1128.81C1409.46,1110.95 1414.56,1095.65 1423.5,1082.88C1433.7,1070.13 1446.45,1062.48 1461.77,1062.48L1803.67,1062.48L1803.67,925.963L1455.38,925.963C1392.86,925.963 1344.37,945.107 1309.92,982.097C1279.33,1016.54 1263.99,1062.47 1263.99,1117.33C1263.99,1170.91 1279.33,1218.12 1309.92,1256.37C1344.37,1298.47 1385.21,1320.18 1434.96,1320.18L1645.47,1320.18C1658.21,1320.18 1668.43,1324.01 1676.07,1334.19C1685.01,1344.39 1688.83,1357.16 1688.83,1371.2C1688.83,1387.79 1682.45,1403.1 1672.24,1415.86C1660.77,1427.34 1648,1433.72 1631.44,1433.72L1294.64,1433.72L1289.55,1424.78L1163.25,1019.1L1156.86,1006.34C1126.24,943.823 1075.22,913.214 1005.05,913.214C966.779,913.214 932.332,922.137 901.71,941.281C869.817,960.411 849.403,988.478 837.925,1024.21L668.241,1570.21L822.607,1571.51L978.245,1085.45C982.071,1070.13 991.007,1062.48 1002.49,1062.48C1008.87,1062.48 1013.96,1065.03 1017.79,1068.86C1021.62,1073.96 1024.17,1079.07 1025.44,1085.45L1182.35,1571.51L1327.83,1571.51L1327.83,1571.5ZM179.644,1091.81L179.644,1570.21L36.756,1570.21L36.756,1076.5C36.756,1012.72 52.074,968.063 85.237,941.281C110.749,922.137 149.023,911.93 202.601,911.93C245.972,911.93 282.974,924.692 316.138,948.933C349.302,973.173 370.987,1006.34 382.478,1047.17L475.601,1375.03L490.919,1419.68C492.19,1428.61 497.3,1434.99 502.397,1440.07C508.778,1445.19 515.146,1447.75 522.811,1445.19C535.573,1443.92 541.955,1436.26 541.955,1424.78L541.955,927.247L688.669,927.247L688.669,1418.4C688.669,1473.26 675.919,1514.1 649.124,1543.44C623.612,1572.78 585.338,1588.1 534.302,1588.1C489.648,1588.1 452.645,1579.16 423.307,1563.86C387.588,1546 364.619,1517.93 354.412,1480.91L247.256,1107.12L239.603,1082.88C237.048,1073.96 231.951,1067.58 225.57,1061.2C219.189,1056.09 211.537,1054.82 203.885,1056.09C196.233,1057.37 191.135,1061.2 186.025,1068.85C181.831,1075.77 179.623,1083.72 179.644,1091.81ZM2463.24,1571.5L2297.4,1019.1L2291.02,1006.34C2260.4,943.823 2209.37,913.214 2139.21,913.214C2100.93,913.214 2066.49,922.137 2035.88,941.281C2003.96,960.411 1983.57,988.478 1972.07,1024.21L1802.39,1570.21L1956.76,1571.51L2112.4,1085.45C2116.22,1070.13 2125.16,1062.48 2136.64,1062.48C2143.02,1062.48 2148.12,1065.03 2151.94,1068.86C2155.8,1073.96 2158.32,1079.07 2159.62,1085.45L2316.53,1571.51L2463.24,1571.51L2463.24,1571.5Z"/>
    </g>
</svg>
