<svg xmlns="http://www.w3.org/2000/svg" viewBox="0 0 132.07 26"><path d="M132.067 0v26H76.646V0h55.42zM74.634 0v26H0V0h74.634zm35.369 3.747h-3.744v13.057c0 1.258.165 2.28.494 3.067.33.787.771 1.395 1.326 1.823a4.478 4.478 0 0 0 1.898.852c.71.14 1.447.21 2.21.21.762 0 1.499-.08 2.21-.237a4.474 4.474 0 0 0 1.898-.917c.554-.454.996-1.07 1.325-1.849.296-.7.46-1.566.49-2.599l.004-.35V3.747h-3.743v13.057c0 .472-.03.904-.091 1.298a2.972 2.972 0 0 1-.338 1.022 1.847 1.847 0 0 1-.663.682c-.278.166-.642.249-1.092.249-.434 0-.793-.083-1.08-.249a1.819 1.819 0 0 1-.675-.682 2.95 2.95 0 0 1-.338-1.022 7.834 7.834 0 0 1-.085-.952l-.006-.346V3.747zM98.616 3.38c-1.404 0-2.522.24-3.354.721a4.834 4.834 0 0 0-1.91 2.006c-.442.856-.728 1.883-.858 3.08a36.47 36.47 0 0 0-.195 3.92c0 1.433.065 2.744.195 3.933.13 1.189.416 2.211.858 3.068a4.584 4.584 0 0 0 1.91 1.966c.832.454 1.95.682 3.354.682 1.404 0 2.522-.228 3.354-.682a4.573 4.573 0 0 0 1.91-1.966c.443-.857.728-1.88.859-3.068.13-1.189.195-2.5.195-3.933a36.47 36.47 0 0 0-.195-3.92c-.13-1.197-.416-2.224-.858-3.08a4.83 4.83 0 0 0-1.911-2.006c-.832-.48-1.95-.721-3.354-.721zm-48.604.367h-3.776v13.057c0 1.258.166 2.28.498 3.068.332.786.778 1.394 1.338 1.822a4.53 4.53 0 0 0 1.914.852c.716.14 1.459.21 2.228.21.77 0 1.512-.08 2.229-.237a4.53 4.53 0 0 0 1.914-.917c.559-.454 1.005-1.07 1.337-1.848.299-.7.463-1.567.493-2.6l.005-.35V3.747h-3.776v13.057c0 .472-.03.904-.091 1.298a2.952 2.952 0 0 1-.341 1.022c-.166.289-.39.516-.669.682-.28.166-.646.249-1.1.249-.438 0-.8-.083-1.089-.25a1.817 1.817 0 0 1-.682-.68 2.93 2.93 0 0 1-.34-1.023 7.632 7.632 0 0 1-.086-.952l-.006-.346V3.747zm-11.52-.367c-1.416 0-2.544.24-3.383.721s-1.48 1.15-1.927 2.006c-.445.856-.734 1.883-.865 3.08a36.456 36.456 0 0 0-.196 3.92c0 1.433.065 2.744.196 3.933.131 1.189.42 2.211.865 3.067a4.597 4.597 0 0 0 1.927 1.967c.84.454 1.967.681 3.382.681 1.416 0 2.544-.227 3.383-.681a4.597 4.597 0 0 0 1.927-1.967c.446-.856.734-1.878.865-3.067.131-1.189.197-2.5.197-3.933 0-1.416-.066-2.722-.197-3.92-.131-1.197-.42-2.224-.865-3.08a4.844 4.844 0 0 0-1.927-2.006c-.84-.48-1.967-.721-3.383-.721zm44.894.367h-4.211l4.81 11.353v7.367h3.743V15.1l4.81-11.353h-4.056l-2.6 7.236h-.052l-2.444-7.236zm-12.213 0H59.217v3.094h4.09v15.626h3.776V6.841h4.09V3.747zm-45.862 0h-6.319v18.72h6.371c1.101 0 2.023-.148 2.766-.446.743-.297 1.346-.695 1.81-1.193.462-.498.79-1.079.983-1.743a7.515 7.515 0 0 0 .288-2.098c0-1.258-.306-2.263-.917-3.015-.566-.693-1.316-1.126-2.253-1.3l-.238-.037v-.052c.944-.262 1.651-.756 2.123-1.482.472-.725.708-1.594.708-2.608 0-.892-.13-1.643-.393-2.255-.262-.612-.63-1.101-1.101-1.468a4.38 4.38 0 0 0-1.691-.787 9.168 9.168 0 0 0-2.137-.236zm-12.585 0H8.06l-4.955 18.72h3.932l.866-3.959h4.981l.866 3.96h3.932L12.727 3.747zm25.765 2.412c.56 0 1.01.127 1.35.38.342.254.604.66.788 1.22.183.559.305 1.276.366 2.15.062.874.092 1.94.092 3.198s-.03 2.33-.092 3.212c-.061.883-.183 1.6-.366 2.15-.184.55-.446.953-.787 1.206s-.791.38-1.35.38c-.56 0-1.01-.127-1.35-.38-.342-.253-.604-.656-.787-1.206-.184-.55-.306-1.267-.367-2.15a46.99 46.99 0 0 1-.092-3.212c0-1.258.03-2.324.092-3.199.06-.873.183-1.59.367-2.15.183-.559.445-.965.786-1.219.341-.253.791-.38 1.35-.38zm60.125 0c.555 0 1.001.127 1.339.38.338.254.598.66.78 1.22.182.559.303 1.276.364 2.15.06.874.09 1.94.09 3.198s-.03 2.33-.09 3.212c-.061.883-.182 1.6-.364 2.15-.182.55-.442.953-.78 1.206s-.784.38-1.339.38c-.555 0-1-.127-1.339-.38-.338-.253-.598-.656-.78-1.206-.182-.55-.303-1.267-.364-2.15-.06-.883-.09-1.954-.09-3.212 0-1.258.03-2.324.09-3.199.06-.873.182-1.59.364-2.15.182-.559.442-.965.78-1.219.338-.253.784-.38 1.34-.38zm-74.223 7.892c.42 0 .804.044 1.154.131.35.088.65.24.904.459.254.219.455.507.603.865.149.359.223.809.223 1.35 0 1.084-.28 1.827-.839 2.229-.503.362-1.148.56-1.935.597l-.267.006h-1.468v-5.637h1.625zM10.42 6.998l1.809 8.416h-3.67l1.808-8.416h.053zm114.364-3.813c-2.356 0-4.266 1.926-4.266 4.301 0 2.376 1.91 4.302 4.266 4.302 2.355 0 4.265-1.926 4.265-4.302 0-2.375-1.91-4.301-4.265-4.301zM24.13 6.526c.944 0 1.634.184 2.071.55.437.368.656.997.656 1.889 0 .89-.24 1.525-.721 1.9-.441.345-1.12.532-2.038.56l-.256.004h-1.075V6.526h1.363zm100.652-2.03c.51 0 .99.13 1.41.36l.175.105-1.307 1.317.92.927 1.306-1.317a2.98 2.98 0 0 1 .461 1.598c0 1.65-1.33 2.991-2.965 2.991-1.635 0-2.966-1.341-2.966-2.99 0-1.65 1.33-2.991 2.966-2.991z" fill-rule="evenodd"/></svg>