<?xml version="1.0" encoding="UTF-8" standalone="no"?>
<!DOCTYPE svg PUBLIC "-//W3C//DTD SVG 1.1//EN" "http://www.w3.org/Graphics/SVG/1.1/DTD/svg11.dtd">
<svg width="100%" height="100%" viewBox="0 0 796 102" version="1.1" xmlns="http://www.w3.org/2000/svg" xmlns:xlink="http://www.w3.org/1999/xlink" xml:space="preserve" xmlns:serif="http://www.serif.com/" style="fill-rule:evenodd;clip-rule:evenodd;stroke-linejoin:round;stroke-miterlimit:2;">
    <path d="M0,0L39.36,0C59,0 71.23,11.06 71.23,25.41C71.443,34.204 66.714,42.413 59,46.64C69.697,49.918 77.038,59.882 77,71.07C77,88.73 63.36,100.5 41.1,100.5L0,100.5L0,0ZM39.79,41.2C49.12,41.2 54.44,37.2 54.44,28.43C54.44,19.66 49.12,15.79 39.79,15.79L16.79,15.79L16.79,41.2L39.79,41.2ZM44,84.71C53.19,84.71 59.51,80.11 59.51,70.92C59.51,61.73 53.14,57 44,57L16.82,57L16.82,84.71L44,84.71ZM84,64.61C84,40.49 99.79,27.28 118.17,27.28C127.17,27.28 134.82,31.56 140.28,36.59L145.91,28.71L156.64,28.71L156.64,100.5L140.22,100.5L140.22,91.62C135.62,96.5 128.44,101.94 117.68,101.94C100.88,101.94 83.94,88.73 83.94,64.61L84,64.61ZM140.28,69.92L140.28,59.44C140.28,49.1 131.52,41.35 120.89,41.35C109.7,41.35 100.51,48.81 100.51,64.61C100.51,80.41 109.64,87.87 121,87.87C131.46,87.87 140.22,80.26 140.22,69.92L140.28,69.92ZM309.76,28.71L289.66,28.71L260.28,62L260.28,0L243.91,0L243.91,100.5L260.28,100.5L260.28,67.24L289.66,100.5L309.76,100.5L277.88,64.61L309.76,28.71ZM350.88,28.71L330.78,28.71L299,64.61L330.8,100.5L350.9,100.5L319,64.61L350.88,28.71ZM445,0L415.15,64.09L385.23,0L367.23,0L367.23,100.5L383.56,100.5L383.56,32.57L407.56,84.42L422.78,84.42L446.78,32.57L446.78,100.5L463,100.5L463,0L445,0ZM473.05,64.61C473.05,40.49 488.84,27.28 507.22,27.28C516.22,27.28 523.87,31.56 529.33,36.59L535,28.71L545.74,28.71L545.74,100.5L529.35,100.5L529.35,91.62C524.76,96.5 517.58,101.94 506.81,101.94C490,101.94 473.07,88.73 473.07,64.61L473.05,64.61ZM529.33,69.92L529.33,59.44C529.33,49.1 520.57,41.35 509.95,41.35C498.75,41.35 489.56,48.81 489.56,64.61C489.56,80.41 498.75,87.87 510.09,87.87C520.59,87.87 529.35,80.26 529.35,69.92L529.33,69.92ZM557.3,28.71L568,28.71L573.64,36.59C578.52,30.99 583.3,27.59 590.58,27.59L602.7,27.59L602.7,43.15L584.36,43.15C577.59,43.15 573.67,46.33 573.67,53.96L573.67,100.46L557.3,100.46L557.3,28.71ZM762.66,82L762.66,42.78L749.31,42.78L749.31,28.71L762.66,28.71L762.66,14.82L779.17,5.25L779.17,28.71L795.25,28.71L795.25,42.78L779.17,42.78L779.17,79.42C779.17,84.15 781.9,86.31 787.35,86.31L794.53,86.31L794.53,100.5L782.47,100.5C770.7,100.5 762.66,95.47 762.66,82ZM729.19,76.08C726.48,83.3 720.52,88.08 710.64,88.08C699.15,88.08 691.11,80.9 690.4,69.08L745.4,69.08L745.4,64C745.4,40.89 730.76,27.25 710.4,27.25C691.31,27.25 674.51,42.18 674.51,64.58C674.51,86.98 688.87,101.91 710.4,101.91C727.12,101.91 738.6,93.77 743.6,79.05C739.29,78.17 734.37,77.14 729.19,76.06L729.19,76.08ZM710.35,40.63C720.69,40.63 728.87,46.52 729.88,57.14L690.68,57.14C692.69,46.66 700.59,40.63 710.35,40.63ZM677,28.71L656.9,28.71L627.49,61.88L627.49,0L611.12,0L611.12,100.5L627.49,100.5L627.49,67.34L656.87,100.5L677,100.5L645.09,64.61L677,28.71ZM202.2,87.43C190.28,87.43 181.38,79.25 181.38,64.61C181.38,49.97 190.28,41.78 202.2,41.78C212.49,41.78 219.1,46.9 221.42,54.87C225.16,54.12 232.78,52.59 235.99,51.87C232.42,36.47 219.89,27.29 202.05,27.29C181.38,27.29 165.3,42.36 165.3,64.62C165.3,86.88 181.38,101.95 202.05,101.95C219.51,101.95 231.77,93.12 235.91,77.34C232.64,76.61 225.08,75.09 221.38,74.34C218.72,82.56 212.51,87.43 202.2,87.43Z" style="fill-rule:nonzero;"/>
</svg>
