<?xml version="1.0" encoding="UTF-8" standalone="no"?>
<!DOCTYPE svg PUBLIC "-//W3C//DTD SVG 1.1//EN" "http://www.w3.org/Graphics/SVG/1.1/DTD/svg11.dtd">
<svg width="100%" height="100%" viewBox="0 0 2418 2500" version="1.1" xmlns="http://www.w3.org/2000/svg" xmlns:xlink="http://www.w3.org/1999/xlink" xml:space="preserve" xmlns:serif="http://www.serif.com/" style="fill-rule:evenodd;clip-rule:evenodd;stroke-linejoin:round;stroke-miterlimit:2;">
    <path d="M2412.34,570.393C2413.23,573.706 2413.69,577.122 2413.7,580.553L2413.7,1113.91C2413.7,1127.82 2406.23,1140.72 2394.16,1147.64L1946.51,1405.37L1946.51,1916.22C1946.51,1930.12 1939.12,1942.96 1927.06,1949.96L992.624,2487.88C990.485,2489.09 988.152,2489.87 985.819,2490.7C984.944,2490.99 984.117,2491.52 983.194,2491.77C976.662,2493.49 969.795,2493.49 963.263,2491.77C962.194,2491.48 961.222,2490.89 960.201,2490.5C958.062,2489.73 955.826,2489.05 953.784,2487.88L19.541,1949.96C7.477,1943.03 0.01,1930.13 -0,1916.22L-0,316.161C-0,312.661 0.486,309.258 1.361,305.953C1.653,304.835 2.333,303.814 2.722,302.696C3.451,300.654 4.132,298.564 5.201,296.668C5.93,295.404 7,294.384 7.875,293.217C8.993,291.661 10.014,290.057 11.326,288.696C12.444,287.578 13.903,286.752 15.166,285.78C16.576,284.613 17.84,283.349 19.444,282.425L19.493,282.425L486.639,13.464C498.661,6.546 513.504,6.546 525.527,13.464L992.673,282.425L992.77,282.425C994.325,283.398 995.638,284.613 997.048,285.731C998.311,286.703 999.721,287.578 1000.84,288.648C1002.2,290.057 1003.17,291.661 1004.34,293.217C1005.17,294.384 1006.28,295.404 1006.96,296.668C1008.08,298.613 1008.71,300.654 1009.49,302.696C1009.88,303.814 1010.56,304.835 1010.85,306.001C1011.75,309.314 1012.21,312.73 1012.21,316.161L1012.21,1315.54L1401.49,1091.4L1401.49,580.504C1401.49,577.102 1401.97,573.65 1402.85,570.393C1403.19,569.227 1403.82,568.206 1404.21,567.088C1404.99,565.046 1405.67,562.956 1406.74,561.06C1407.46,559.796 1408.54,558.775 1409.36,557.609C1410.53,556.053 1411.5,554.449 1412.86,553.088C1413.98,551.97 1415.39,551.144 1416.65,550.171C1418.11,549.005 1419.38,547.741 1420.93,546.817L1420.98,546.817L1888.17,277.856C1900.19,270.928 1915.04,270.928 1927.06,277.856L2394.21,546.817C2395.86,547.79 2397.12,549.005 2398.58,550.123C2399.8,551.095 2401.21,551.97 2402.33,553.039C2403.69,554.449 2404.66,556.053 2405.83,557.609C2406.7,558.775 2407.77,559.796 2408.45,561.06C2409.57,562.956 2410.2,565.046 2410.98,567.088C2411.41,568.206 2412.05,569.227 2412.34,570.393ZM2335.83,1091.4L2335.83,647.878L2172.35,741.988L1946.51,872.021L1946.51,1315.54L2335.88,1091.4L2335.83,1091.4ZM1868.68,1893.71L1868.68,1449.9L1646.53,1576.77L1012.17,1938.82L1012.17,2386.82L1868.68,1893.71ZM77.874,383.486L77.874,1893.71L934.292,2386.77L934.292,1938.87L486.882,1685.66L486.736,1685.56L486.541,1685.47C485.034,1684.59 483.771,1683.33 482.361,1682.26C481.146,1681.29 479.736,1680.51 478.666,1679.44L478.569,1679.29C477.305,1678.08 476.43,1676.57 475.361,1675.21C474.389,1673.9 473.222,1672.78 472.444,1671.42L472.396,1671.27C471.521,1669.81 470.986,1668.06 470.354,1666.41C469.722,1664.95 468.896,1663.59 468.507,1662.04L468.507,1661.99C468.021,1660.14 467.924,1658.2 467.729,1656.3C467.535,1654.84 467.146,1653.38 467.146,1651.93L467.146,607.629L241.351,477.548L77.874,383.535L77.874,383.486ZM506.131,92.116L116.908,316.161L506.034,540.206L895.209,316.112L506.034,92.116L506.131,92.116ZM708.545,1490.35L934.34,1360.36L934.34,383.486L770.863,477.596L545.02,607.629L545.02,1584.5L708.545,1490.35ZM1907.62,356.508L1518.44,580.553L1907.62,804.598L2296.74,580.504L1907.62,356.508ZM1868.68,872.021L1642.84,741.988L1479.36,647.878L1479.36,1091.4L1705.15,1221.38L1868.68,1315.54L1868.68,872.021ZM973.18,1871.5L1544.01,1545.62L1829.36,1382.77L1440.47,1158.87L992.721,1416.65L584.637,1651.59L973.18,1871.5Z" style="fill:rgb(254,254,254);fill-rule:nonzero;"/>
</svg>
