<?xml version="1.0" encoding="UTF-8" standalone="no"?>
<!DOCTYPE svg PUBLIC "-//W3C//DTD SVG 1.1//EN" "http://www.w3.org/Graphics/SVG/1.1/DTD/svg11.dtd">
<svg width="100%" height="100%" viewBox="0 0 1807 874" version="1.1" xmlns="http://www.w3.org/2000/svg" xmlns:xlink="http://www.w3.org/1999/xlink" xml:space="preserve" xmlns:serif="http://www.serif.com/" style="fill-rule:evenodd;clip-rule:evenodd;stroke-linejoin:round;stroke-miterlimit:2;">
    <g transform="matrix(1,0,0,1,-351.025,-162.879)">
        <g>
            <ellipse cx="1250" cy="650.887" rx="1250" ry="650.684" style="fill:rgb(137,147,190);"/>
            <path d="M351.025,1036.16L488.018,342.664L804.785,342.664C941.768,351.229 1010.26,419.715 1010.26,539.588C1010.26,745.066 847.598,864.93 702.041,856.365L547.949,856.365L513.701,1036.16L351.025,1036.16ZM582.188,727.947L625,471.092L736.299,471.092C796.23,471.092 839.033,496.775 839.033,548.143C830.479,693.699 761.982,719.383 684.932,727.947L582.188,727.947ZM978.437,856.365L1115.42,162.879L1278.1,162.879L1243.85,342.664L1397.95,342.664C1534.94,351.229 1586.31,419.715 1569.19,505.34L1509.26,856.365L1338.03,856.365L1397.96,539.588C1406.51,496.775 1406.51,471.092 1346.59,471.092L1218.16,471.092L1141.11,856.365L978.437,856.365ZM1498.29,1036.16L1635.27,342.664L1952.05,342.664C2089.04,351.229 2157.54,419.715 2157.54,539.588C2157.54,745.066 1994.86,864.93 1849.32,856.365L1695.2,856.365L1660.96,1036.16L1498.29,1036.16ZM1729.44,727.947L1772.26,471.092L1883.56,471.092C1943.5,471.092 1986.3,496.775 1986.3,548.143C1977.74,693.699 1909.25,719.383 1832.2,727.947L1729.44,727.947Z" style="fill:white;"/>
        </g>
    </g>
</svg>
