<?xml version="1.0" encoding="UTF-8" standalone="no"?>
<!DOCTYPE svg PUBLIC "-//W3C//DTD SVG 1.1//EN" "http://www.w3.org/Graphics/SVG/1.1/DTD/svg11.dtd">
<svg width="100%" height="100%" viewBox="0 0 2501 2501" version="1.1" xmlns="http://www.w3.org/2000/svg" xmlns:xlink="http://www.w3.org/1999/xlink" xml:space="preserve" xmlns:serif="http://www.serif.com/" style="fill-rule:evenodd;clip-rule:evenodd;stroke-linejoin:round;stroke-miterlimit:2;">
    <g transform="matrix(1,0,0,1,1.4772e-05,0.00874255)">
        <path d="M2482.92,1219.36L2377.97,1154.38C2377.08,1144.19 2376.09,1134 2374.98,1123.82L2465.18,1039.69C2474.34,1031.18 2478.43,1018.48 2475.97,1006.22C2473.56,993.953 2464.93,983.787 2453.21,979.424L2337.91,936.309C2335.01,926.352 2332,916.43 2328.88,906.543L2400.8,806.65C2405.24,800.5 2407.63,793.105 2407.63,785.521C2407.63,767.883 2394.71,752.696 2377.3,749.873L2255.71,730.098C2250.99,720.879 2246.06,711.797 2241.1,702.793L2292.19,590.654C2297.41,579.288 2296.34,565.984 2289.38,555.596C2282.46,545.174 2270.58,539.087 2258.09,539.561L2134.69,543.857C2128.31,535.875 2121.82,527.993 2115.2,520.215L2143.55,400.02C2146.44,387.844 2142.78,375.008 2133.93,366.172C2125.09,357.327 2112.27,353.677 2100.1,356.543L1979.93,384.873C1972.13,378.259 1964.23,371.761 1956.24,365.381L1960.56,241.992C1961.03,229.497 1954.95,217.622 1944.54,210.693C1934.15,203.736 1920.86,202.662 1909.48,207.861L1797.37,258.975C1788.33,253.984 1779.23,249.1 1770.07,244.326L1750.24,122.725C1747.4,105.324 1732.22,92.419 1714.58,92.419C1707.01,92.419 1699.63,94.798 1693.49,99.219L1593.53,171.143C1583.69,168.018 1573.8,165 1563.82,162.139L1520.7,46.816C1516.35,35.082 1506.18,26.427 1493.9,24.004C1481.65,21.593 1468.98,25.684 1460.46,34.805L1376.33,125.068C1366.15,123.928 1355.96,122.932 1345.76,122.08L1280.79,17.1C1274.22,6.475 1262.58,-0.009 1250.08,-0.009C1237.59,-0.009 1225.95,6.475 1219.38,17.1L1154.4,122.08C1144.19,122.931 1133.99,123.927 1123.81,125.068L1039.66,34.805C1032.84,27.47 1023.26,23.299 1013.24,23.299C998.192,23.299 984.654,32.711 979.414,46.816L936.309,162.139C926.318,165 916.436,168.037 906.572,171.143L806.631,99.219C796.49,91.888 783.229,90.35 771.68,95.166C760.143,99.958 751.875,110.397 749.854,122.725L730.029,244.326C720.85,249.082 711.777,253.975 702.725,258.975L590.605,207.852C579.239,202.649 565.946,203.727 555.566,210.693C545.151,217.617 539.066,229.494 539.531,241.992L543.828,365.381C535.845,371.773 527.947,378.271 520.137,384.873L399.971,356.553C387.797,353.7 374.977,357.344 366.123,366.172C357.265,375.008 353.613,387.844 356.494,400.02L384.805,520.215C378.232,527.998 371.738,535.879 365.361,543.857L241.963,539.561C229.485,539.167 217.646,545.23 210.674,555.586C203.719,565.977 202.642,579.269 207.832,590.645L258.945,702.793C253.975,711.797 249.062,720.879 244.297,730.098L122.725,749.873C105.319,752.711 92.407,767.899 92.407,785.535C92.407,793.112 94.791,800.501 99.219,806.65L171.143,906.553C168.018,916.416 164.98,926.318 162.109,936.309L46.797,979.424C32.729,984.709 23.358,998.239 23.358,1013.27C23.358,1023.28 27.517,1032.85 34.834,1039.69L125.039,1123.81C123.916,1133.96 122.92,1144.19 122.061,1154.38L17.09,1219.36C6.467,1225.93 -0.011,1237.58 0,1250.07C0,1262.61 6.475,1274.22 17.1,1280.76L122.061,1345.73C122.92,1355.96 123.916,1366.16 125.039,1376.31L34.824,1460.46C27.493,1467.29 23.324,1476.86 23.324,1486.88C23.324,1501.91 32.714,1515.44 46.797,1520.7L162.109,1563.82C164.98,1573.8 168.018,1583.71 171.143,1593.57L99.219,1693.49C94.782,1699.63 92.393,1707.03 92.393,1714.61C92.393,1732.25 105.333,1747.44 122.754,1750.24L244.307,1770.02C249.062,1779.24 253.936,1788.32 258.955,1797.36L207.832,1909.47C202.632,1920.85 203.71,1934.14 210.674,1944.53C217.598,1954.94 229.47,1961.02 241.963,1960.56L365.303,1956.24C371.738,1964.26 378.213,1972.12 384.805,1979.93L356.494,2100.15C353.615,2112.3 357.268,2125.12 366.123,2133.93C374.954,2142.79 387.8,2146.44 399.971,2143.53L520.137,2115.22C527.949,2121.87 535.859,2128.31 543.838,2134.66L539.541,2258.09C539.525,2258.52 539.518,2258.95 539.518,2259.39C539.518,2279.18 555.802,2295.46 575.592,2295.46C580.773,2295.46 585.894,2294.34 590.605,2292.19L702.725,2241.1C711.752,2246.12 720.855,2251 730.029,2255.74L749.854,2377.28C751.843,2389.62 760.12,2400.09 771.68,2404.86C783.231,2409.65 796.473,2408.12 806.631,2400.83L906.523,2328.86C916.387,2331.98 926.299,2335.04 936.279,2337.91L979.395,2453.18C983.755,2464.9 993.922,2473.54 1006.19,2475.95C1018.45,2478.42 1031.14,2474.32 1039.64,2465.15L1123.79,2374.93C1133.94,2376.1 1144.16,2377.08 1154.38,2377.99L1219.36,2482.95C1225.94,2493.56 1237.57,2500.03 1250.05,2500.04C1262.54,2500.03 1274.17,2493.56 1280.76,2482.95L1345.73,2377.99C1355.96,2377.08 1366.16,2376.1 1376.31,2374.93L1460.44,2465.15C1468.94,2474.31 1481.62,2478.41 1493.88,2475.95C1506.14,2473.53 1516.31,2464.9 1520.67,2453.18L1563.79,2337.91C1573.77,2335.04 1583.69,2331.98 1593.56,2328.86L1693.47,2400.83C1699.61,2405.25 1706.99,2407.62 1714.56,2407.62C1732.2,2407.62 1747.4,2394.7 1750.23,2377.28L1770.05,2255.74C1779.22,2250.99 1788.29,2246.05 1797.34,2241.09L1909.46,2292.19C1914.18,2294.35 1919.31,2295.48 1924.51,2295.48C1944.29,2295.48 1960.56,2279.2 1960.56,2259.42C1960.56,2258.98 1960.55,2258.53 1960.54,2258.09L1956.24,2134.67C1964.23,2128.31 1972.12,2121.83 1979.9,2115.22L2100.08,2143.53C2112.28,2146.4 2125.08,2142.84 2133.9,2133.93C2142.75,2125.12 2146.41,2112.3 2143.53,2100.15L2115.22,1979.93C2121.82,1972.12 2128.31,1964.26 2134.66,1956.24L2258.06,1960.56C2270.55,1961.03 2282.42,1954.95 2289.35,1944.54C2296.32,1934.15 2297.39,1920.84 2292.17,1909.46L2241.07,1797.37C2246.06,1788.32 2250.97,1779.24 2255.69,1770.03L2377.28,1750.24C2389.62,1748.26 2400.08,1739.98 2404.83,1728.41C2409.62,1716.87 2408.09,1703.63 2400.78,1693.49L2328.86,1593.58C2331.96,1583.71 2335,1573.8 2337.89,1563.82L2453.18,1520.7C2464.91,1516.34 2473.54,1506.17 2475.95,1493.9C2478.42,1481.64 2474.32,1468.95 2465.15,1460.46L2374.96,1376.31C2376.05,1366.15 2377.06,1355.94 2377.94,1345.74L2482.9,1280.76C2493.53,1274.2 2500.01,1262.56 2500,1250.07C2500,1237.56 2493.55,1225.93 2482.92,1219.36ZM1780.46,2090.02C1740.38,2081.38 1714.89,2041.88 1723.5,2001.67C1732.07,1961.51 1771.54,1935.96 1811.61,1944.6C1851.69,1953.18 1877.22,1992.75 1868.62,2032.88C1860.03,2073.02 1820.52,2098.6 1780.46,2090.02ZM1744.8,1848.82C1740.13,1847.82 1735.38,1847.31 1730.61,1847.31C1698.78,1847.31 1671.05,1869.76 1664.42,1900.89L1627.16,2074.78C1512.17,2126.97 1384.48,2155.97 1250,2155.97C1112.44,2155.97 981.973,2125.54 864.941,2071.12L827.695,1897.24C819.863,1860.64 783.887,1837.33 747.344,1845.19L593.828,1878.15C565.297,1848.79 538.779,1817.53 514.453,1784.6L1261.43,1784.6C1269.87,1784.6 1275.51,1783.07 1275.51,1775.37L1275.51,1511.14C1275.51,1503.46 1269.87,1501.92 1261.42,1501.92L1042.97,1501.92L1042.97,1334.44L1279.25,1334.44C1300.81,1334.44 1394.57,1340.6 1424.54,1460.44C1433.94,1497.3 1454.54,1617.18 1468.64,1655.56C1482.69,1698.6 1539.86,1784.59 1600.8,1784.59L1973.02,1784.59C1977.25,1784.59 1981.76,1784.11 1986.51,1783.25C1960.69,1818.33 1932.4,1851.52 1901.86,1882.57L1744.81,1848.82L1744.8,1848.82ZM711.689,2086.39C671.602,2095.04 632.139,2069.48 623.516,2029.33C614.941,1989.1 640.43,1949.62 680.508,1940.98C720.596,1932.4 760.078,1957.96 768.672,1998.11C777.246,2038.24 751.738,2077.79 711.68,2086.39L711.689,2086.39ZM428.32,937.363C444.951,974.883 428.027,1018.86 390.557,1035.46C353.086,1052.11 309.229,1035.17 292.607,997.617C275.977,960.068 292.891,916.172 330.371,899.521C339.844,895.32 350.092,893.149 360.454,893.149C389.778,893.149 416.466,910.533 428.32,937.354L428.32,937.363ZM341.23,1143.81L501.152,1072.74C535.109,1057.64 550.638,1017.28 535.566,983.311L502.637,908.838L632.168,908.838L632.168,1492.7L370.83,1492.7C347.664,1411.15 335.944,1326.78 336.006,1242C336.006,1208.82 337.793,1176.03 341.23,1143.8L341.23,1143.81ZM1043.01,1087.1L1043.01,915L1351.46,915C1367.4,915 1463.96,933.418 1463.96,1005.62C1463.96,1065.58 1389.9,1087.07 1328.99,1087.07L1043.01,1087.07L1043.01,1087.1ZM2164.02,1242C2164.02,1264.83 2163.18,1287.43 2161.51,1309.85L2067.73,1309.85C2058.35,1309.85 2054.57,1316.03 2054.57,1325.21L2054.57,1368.28C2054.57,1469.65 1997.41,1491.7 1947.32,1497.31C1899.63,1502.69 1846.74,1477.34 1840.23,1448.15C1812.08,1289.89 1765.19,1256.09 1691.15,1197.69C1783.05,1139.34 1878.65,1053.25 1878.65,938.018C1878.65,813.604 1793.36,735.234 1735.22,696.807C1653.65,643.037 1563.34,632.256 1538.98,632.256L569.131,632.256C700.645,485.479 878.887,381.504 1080.48,343.672L1194.8,463.594C1207.55,476.98 1225.25,484.566 1243.74,484.566C1261.15,484.566 1277.91,477.839 1290.49,465.801L1418.4,343.457C1686.42,393.359 1913.34,560.195 2044.11,789.092L1956.54,986.875C1941.43,1021.1 1956.86,1061.13 1990.99,1076.3L2159.58,1151.18C2162.49,1181.11 2164.02,1211.35 2164.02,1242ZM1194.84,241.65C1224.46,213.281 1271.44,214.404 1299.81,244.063C1328.11,273.809 1327.03,320.84 1297.34,349.189C1267.73,377.568 1220.74,376.465 1192.38,346.748C1164.28,317.225 1165.39,269.825 1194.84,241.65ZM2063.82,940.967C2075.66,914.154 2102.34,896.774 2131.65,896.774C2142.02,896.774 2152.27,898.948 2161.75,903.154C2199.23,919.775 2216.14,963.73 2199.51,1001.25C2187.67,1028.08 2160.98,1045.47 2131.66,1045.47C2121.29,1045.47 2111.04,1043.3 2101.56,1039.09C2064.13,1022.46 2047.22,978.545 2063.82,940.967Z" style="fill:white;fill-rule:nonzero;"/>
    </g>
</svg>
